<svg xmlns="http://www.w3.org/2000/svg" viewBox="0 0 320 225"><rect width="320" height="225" rx="16" fill="#102440"/><g fill="none" stroke="#9cbfe8" stroke-width="3" stroke-linecap="round" stroke-linejoin="round"><path d="M60 65 155 40" opacity=".65"/><path d="M60 65 155 110" opacity=".65"/><path d="M60 65 155 180" opacity=".65"/><path d="M60 155 155 40" opacity=".65"/><path d="M60 155 155 110" opacity=".65"/><path d="M60 155 155 180" opacity=".65"/><path d="M155 40 260 75" opacity=".65"/><path d="M155 40 260 150" opacity=".65"/><path d="M155 110 260 75" opacity=".65"/><path d="M155 110 260 150" opacity=".65"/><path d="M155 180 260 75" opacity=".65"/><path d="M155 180 260 150" opacity=".65"/><circle cx="60" cy="65" r="15" fill="#213954"/><circle cx="60" cy="155" r="15" fill="#213954"/><circle cx="155" cy="40" r="15" fill="#213954"/><circle cx="155" cy="110" r="15" fill="#213954"/><circle cx="155" cy="180" r="15" fill="#213954"/><circle cx="260" cy="75" r="15" fill="#213954"/><circle cx="260" cy="150" r="15" fill="#213954"/></g></svg>